<svg width="46" height="46" viewBox="0 0 46 46" fill="none" xmlns="http://www.w3.org/2000/svg">
<path d="M37.2381 0H8.7619C3.92284 0 0 3.92284 0 8.7619V37.2381C0 42.0772 3.92284 46 8.7619 46H37.2381C42.0772 46 46 42.0772 46 37.2381V8.7619C46 3.92284 42.0772 0 37.2381 0Z" fill="#DEEBFF"/>
<path d="M22.6365 30.2855C21.9577 30.2819 21.2896 30.116 20.6881 29.8015C20.107 29.5088 19.6203 29.0582 19.2838 28.5014C18.9473 27.9446 18.7746 27.3042 18.7857 26.6538V25.3055C18.7857 25.1527 18.8463 25.0062 18.9544 24.8981C19.0624 24.7901 19.209 24.7294 19.3617 24.7294H25.8981C26.0509 24.7294 26.1974 24.7901 26.3055 24.8981C26.4135 25.0062 26.4742 25.1527 26.4742 25.3055V26.4588C26.4682 27.474 26.0614 28.4458 25.3425 29.1627C24.6236 29.8795 23.6507 30.2835 22.6354 30.2866L22.6365 30.2855ZM19.9389 25.8586V26.6538C19.941 27.0886 20.0612 27.5146 20.2868 27.8864C20.5123 28.2581 20.8346 28.5615 21.2193 28.7642C21.657 28.9942 22.1432 29.1166 22.6376 29.1213C23.3451 29.1185 24.0232 28.8378 24.5257 28.3398C25.0283 27.8418 25.315 27.1662 25.3242 26.4588V25.8706L19.9389 25.8586Z" fill="#253858"/>
<path d="M19.8927 21.2477C19.792 21.2472 19.6932 21.2203 19.6062 21.1698C19.5191 21.1193 19.4469 21.0468 19.3965 20.9596C19.2533 20.6894 19.0392 20.4633 18.7771 20.3057C18.5151 20.148 18.215 20.0647 17.9092 20.0647C17.6034 20.0647 17.3033 20.148 17.0413 20.3057C16.7792 20.4633 16.5651 20.6894 16.4219 20.9596C16.3455 21.0927 16.2193 21.1899 16.0713 21.23C15.9232 21.27 15.7652 21.2496 15.6322 21.1732C15.4992 21.0968 15.4019 20.9707 15.3619 20.8226C15.3218 20.6745 15.3422 20.5166 15.4186 20.3835C15.6633 19.9387 16.0229 19.5676 16.46 19.3092C16.897 19.0508 17.3955 18.9145 17.9032 18.9145C18.4109 18.9145 18.9093 19.0508 19.3463 19.3092C19.7834 19.5676 20.143 19.9387 20.3877 20.3835C20.4382 20.4709 20.4648 20.57 20.4649 20.6709C20.465 20.7718 20.4387 20.8709 20.3884 20.9584C20.3382 21.0459 20.2658 21.1187 20.1786 21.1695C20.0915 21.2202 19.9925 21.2472 19.8916 21.2477H19.8927Z" fill="#253858"/>
<path d="M29.3556 21.2477C29.2549 21.2472 29.1561 21.2203 29.0691 21.1698C28.982 21.1193 28.9098 21.0468 28.8594 20.9596C28.7162 20.6894 28.5021 20.4633 28.24 20.3057C27.978 20.148 27.6779 20.0647 27.3721 20.0647C27.0663 20.0647 26.7662 20.148 26.5042 20.3057C26.2421 20.4633 26.028 20.6894 25.8848 20.9596C25.8084 21.0927 25.6823 21.1899 25.5342 21.23C25.3861 21.27 25.2281 21.2496 25.0951 21.1732C24.962 21.0968 24.8648 20.9707 24.8247 20.8226C24.7847 20.6745 24.8051 20.5166 24.8815 20.3835C25.1262 19.9387 25.4858 19.5676 25.9229 19.3092C26.3599 19.0508 26.8584 18.9145 27.3661 18.9145C27.8738 18.9145 28.3722 19.0508 28.8092 19.3092C29.2463 19.5676 29.6059 19.9387 29.8506 20.3835C29.9011 20.4709 29.9277 20.57 29.9278 20.6709C29.9279 20.7718 29.9016 20.8709 29.8513 20.9584C29.8011 21.0459 29.7287 21.1187 29.6415 21.1695C29.5544 21.2202 29.4554 21.2472 29.3545 21.2477H29.3556Z" fill="#253858"/>
<path d="M22.6363 33.9523C20.0991 33.955 17.6395 33.0777 15.6767 31.4699C13.714 29.8622 12.3695 27.6235 11.8726 25.1355C11.3756 22.6474 11.7569 20.064 12.9514 17.8256C14.146 15.5872 16.0798 13.8324 18.4234 12.8602C20.7669 11.8881 23.3751 11.7587 25.8033 12.4943C28.2316 13.2299 30.3295 14.7848 31.7397 16.894C33.1498 19.0033 33.7847 21.5363 33.5364 24.0613C33.288 26.5863 32.1716 28.947 30.3774 30.741C28.3249 32.7954 25.5404 33.9505 22.6363 33.9523ZM22.6363 13.2008C20.3663 13.1985 18.1656 13.9835 16.4096 15.4221C14.6535 16.8606 13.4507 18.8637 13.0062 21.0898C12.5617 23.3159 12.9029 25.6273 13.9718 27.63C15.0407 29.6326 16.771 31.2026 18.8679 32.0724C20.9647 32.9421 23.2983 33.0577 25.4709 32.3994C27.6434 31.7412 29.5204 30.3499 30.782 28.4627C32.0435 26.5754 32.6116 24.3091 32.3892 22.0499C32.1669 19.7908 31.1679 17.6787 29.5626 16.0736C27.726 14.2356 25.2346 13.2022 22.6363 13.2008Z" fill="#253858"/>
</svg>
