<svg width="46" height="46" viewBox="0 0 46 46" fill="none" xmlns="http://www.w3.org/2000/svg">
<path d="M37.2381 0H8.7619C3.92284 0 0 3.92284 0 8.7619V37.2381C0 42.0772 3.92284 46 8.7619 46H37.2381C42.0772 46 46 42.0772 46 37.2381V8.7619C46 3.92284 42.0772 0 37.2381 0Z" fill="#DEEBFF"/>
<mask id="mask0_139_11122" style="mask-type:luminance" maskUnits="userSpaceOnUse" x="10" y="10" width="26" height="26">
<path d="M34.4484 34.4476V11.5524H11.5531V34.4476H34.4484Z" fill="white" stroke="white" stroke-width="1.2"/>
</mask>
<g mask="url(#mask0_139_11122)">
<path d="M16.643 23.8845C15.7555 22.6223 15.2344 21.0836 15.2344 19.4234C15.2344 15.1348 18.7109 11.6583 22.9994 11.6583C27.288 11.6583 30.7645 15.1348 30.7645 19.4234C30.7645 21.0836 30.2434 22.6223 29.3559 23.8845" stroke="#253858" stroke-width="1.2" stroke-miterlimit="10"/>
<path d="M23.0003 22.9529C21.0542 22.9529 19.4707 21.3694 19.4707 19.4233C19.4707 17.4772 21.0542 15.8937 23.0003 15.8937C24.9464 15.8937 26.5299 17.4772 26.5299 19.4233C26.5299 21.3694 24.9464 22.9529 23.0003 22.9529Z" stroke="#253858" stroke-width="1.2" stroke-miterlimit="10"/>
<path d="M16.3809 23.4856L22.9999 33.7534L29.6189 23.4856" stroke="#253858" stroke-width="1.2" stroke-miterlimit="10"/>
</g>
</svg>
