<svg width="46" height="46" viewBox="0 0 46 46" fill="none" xmlns="http://www.w3.org/2000/svg">
<path d="M37.2381 0H8.7619C3.92284 0 0 3.92284 0 8.7619V37.2381C0 42.0772 3.92284 46 8.7619 46H37.2381C42.0772 46 46 42.0772 46 37.2381V8.7619C46 3.92284 42.0772 0 37.2381 0Z" fill="#DEEBFF"/>
<g clip-path="url(#clip0_139_11161)">
<path d="M22.9133 23.9356C22.9383 23.9356 22.9632 23.9356 22.9931 23.9356C23.0031 23.9356 23.0131 23.9356 23.0231 23.9356C23.0381 23.9356 23.058 23.9356 23.073 23.9356C24.535 23.9106 25.7175 23.3967 26.5907 22.4137C28.5118 20.2482 28.1924 16.5359 28.1575 16.1816C28.0327 13.5221 26.7753 12.2497 25.7375 11.6559C24.9641 11.2119 24.0609 10.9724 23.053 10.9524H23.0181C23.0131 10.9524 23.0031 10.9524 22.9981 10.9524H22.9682C22.4143 10.9524 21.3266 11.0422 20.2837 11.636C19.2359 12.2298 17.9585 13.5021 17.8338 16.1816C17.7989 16.5359 17.4795 20.2482 19.4006 22.4137C20.2688 23.3967 21.4513 23.9106 22.9133 23.9356ZM19.1661 16.3063C19.1661 16.2914 19.171 16.2764 19.171 16.2664C19.3357 12.6888 21.8755 12.3046 22.9632 12.3046H22.9832C22.9931 12.3046 23.0081 12.3046 23.0231 12.3046C24.3703 12.3345 26.6606 12.8834 26.8153 16.2664C26.8153 16.2814 26.8153 16.2964 26.8202 16.3063C26.8252 16.3413 27.1745 19.7343 25.5878 21.5206C24.9591 22.2291 24.1208 22.5784 23.0181 22.5884C23.0081 22.5884 23.0031 22.5884 22.9931 22.5884C22.9832 22.5884 22.9782 22.5884 22.9682 22.5884C21.8705 22.5784 21.0272 22.2291 20.4035 21.5206C18.8218 19.7442 19.1611 16.3363 19.1661 16.3063Z" fill="#253858"/>
<path d="M33.2479 30.0929C33.2479 30.0879 33.2479 30.0829 33.2479 30.0779C33.2479 30.038 33.243 29.9981 33.243 29.9531C33.213 28.9652 33.1481 26.655 30.9826 25.9165C30.9677 25.9115 30.9477 25.9065 30.9327 25.9015C28.6824 25.3277 26.8112 24.0304 26.7913 24.0154C26.4869 23.8009 26.0678 23.8757 25.8532 24.1801C25.6387 24.4844 25.7135 24.9036 26.0179 25.1181C26.1027 25.178 28.0886 26.5602 30.5735 27.1988C31.7361 27.613 31.8658 28.8554 31.9007 29.9931C31.9007 30.038 31.9007 30.0779 31.9057 30.1178C31.9107 30.5669 31.8808 31.2604 31.8009 31.6596C30.9926 32.1187 27.8241 33.7054 23.0041 33.7054C18.204 33.7054 15.0156 32.1137 14.2023 31.6546C14.1224 31.2555 14.0875 30.5619 14.0975 30.1128C14.0975 30.0729 14.1025 30.033 14.1025 29.9881C14.1374 28.8504 14.2671 27.608 15.4297 27.1938C17.9146 26.5552 19.9005 25.168 19.9853 25.1131C20.2897 24.8986 20.3645 24.4795 20.15 24.1751C19.9354 23.8707 19.5163 23.7959 19.2119 24.0104C19.192 24.0254 17.3308 25.3227 15.0705 25.8965C15.0505 25.9015 15.0356 25.9065 15.0206 25.9115C12.8551 26.655 12.7902 28.9652 12.7603 29.9482C12.7603 29.9931 12.7603 30.033 12.7553 30.0729C12.7553 30.0779 12.7553 30.0829 12.7553 30.0879C12.7503 30.3473 12.7453 31.6796 13.0097 32.3482C13.0596 32.4779 13.1495 32.5877 13.2692 32.6626C13.4189 32.7623 17.0065 35.0476 23.0091 35.0476C29.0117 35.0476 32.5993 32.7574 32.749 32.6626C32.8637 32.5877 32.9585 32.4779 33.0084 32.3482C33.2579 31.6846 33.2529 30.3523 33.2479 30.0929Z" fill="#253858"/>
</g>
<defs>
<clipPath id="clip0_139_11161">
<rect width="24.0952" height="24.0952" fill="white" transform="translate(10.9531 10.9524)"/>
</clipPath>
</defs>
</svg>
