<svg width="46" height="46" viewBox="0 0 46 46" fill="none" xmlns="http://www.w3.org/2000/svg">
<path d="M37.2381 0H8.7619C3.92284 0 0 3.92284 0 8.7619V37.2381C0 42.0772 3.92284 46 8.7619 46H37.2381C42.0772 46 46 42.0772 46 37.2381V8.7619C46 3.92284 42.0772 0 37.2381 0Z" fill="#DEEBFF"/>
<path d="M23.6256 19.8633C23.4514 19.8642 23.284 19.7963 23.16 19.6744C23.036 19.5525 22.9657 19.3866 22.9644 19.2131V17.981C22.9644 17.8061 23.0342 17.6382 23.1584 17.5145C23.2827 17.3908 23.4512 17.3212 23.6268 17.3212C23.8025 17.3212 23.971 17.3908 24.0953 17.5145C24.2195 17.6382 24.2893 17.8061 24.2893 17.981V19.2107C24.2896 19.2966 24.2728 19.3816 24.2397 19.4609C24.2066 19.5403 24.1579 19.6122 24.0966 19.6725C23.9718 19.7954 23.8035 19.8643 23.6281 19.8645L23.6256 19.8633ZM22.9644 31.5417V32.7713C22.9644 32.9463 23.0342 33.1141 23.1584 33.2379C23.2827 33.3616 23.4512 33.4311 23.6268 33.4311C23.8025 33.4311 23.971 33.3616 24.0953 33.2379C24.2195 33.1141 24.2893 32.9463 24.2893 32.7713V31.5393C24.2893 31.3643 24.2195 31.1965 24.0953 31.0728C23.971 30.949 23.8025 30.8795 23.6268 30.8795C23.4512 30.8795 23.2827 30.949 23.1584 31.0728C23.0342 31.1965 22.9644 31.3643 22.9644 31.5393V31.5417ZM31.1547 26.0234C31.3278 26.0234 31.4939 25.9549 31.6163 25.833C31.7387 25.711 31.8075 25.5456 31.8075 25.3732C31.8075 25.2007 31.7387 25.0354 31.6163 24.9134C31.4939 24.7915 31.3278 24.723 31.1547 24.723H29.9021C29.7289 24.723 29.5629 24.7915 29.4404 24.9134C29.318 25.0354 29.2492 25.2007 29.2492 25.3732C29.2492 25.5456 29.318 25.711 29.4404 25.833C29.5629 25.9549 29.7289 26.0234 29.9021 26.0234H31.1547ZM28.5362 29.2876C28.411 29.1655 28.2428 29.0972 28.0677 29.0972C27.8925 29.0972 27.7243 29.1655 27.5991 29.2876C27.5377 29.3476 27.4889 29.4192 27.4556 29.4982C27.4223 29.5771 27.4051 29.662 27.4051 29.7477C27.4051 29.8333 27.4223 29.9182 27.4556 29.9972C27.4889 30.0762 27.5377 30.1477 27.5991 30.2077L28.4856 31.0786C28.6108 31.2007 28.779 31.2691 28.9542 31.2691C29.1293 31.2691 29.2975 31.2007 29.4227 31.0786C29.4841 31.0187 29.5329 30.9471 29.5662 30.8681C29.5996 30.7891 29.6167 30.7043 29.6167 30.6186C29.6167 30.5329 29.5996 30.4481 29.5662 30.3691C29.5329 30.2901 29.4841 30.2185 29.4227 30.1585L28.5362 29.2876ZM23.6305 23.1407C24.0038 23.1391 24.3718 23.2284 24.7024 23.401L28.1436 20.0204C28.2675 19.8967 28.4352 19.8264 28.6107 19.8246C28.7862 19.8228 28.9553 19.8897 29.0818 20.0108C29.1439 20.0703 29.1935 20.1414 29.2277 20.2202C29.2618 20.2989 29.2799 20.3837 29.2808 20.4695C29.2817 20.5553 29.2654 20.6404 29.2329 20.7198C29.2004 20.7992 29.1523 20.8714 29.0915 20.9321L25.6455 24.3127C25.801 24.5983 25.8913 24.9145 25.9101 25.2388C25.9288 25.5631 25.8755 25.8875 25.7539 26.1889C25.6311 26.4919 25.4436 26.7647 25.2044 26.9885C24.9652 27.2122 24.6801 27.3814 24.3688 27.4845C24.056 27.5889 23.7243 27.6251 23.3962 27.5908C23.068 27.5564 22.7512 27.4523 22.467 27.2854C22.1854 27.1214 21.9434 26.8978 21.7581 26.6304C21.5729 26.3629 21.4489 26.0583 21.3949 25.7378C21.3409 25.4174 21.3582 25.0891 21.4456 24.7761C21.5331 24.4631 21.6885 24.173 21.9009 23.9264C22.1161 23.6782 22.3826 23.4792 22.6821 23.343C22.9817 23.2068 23.3072 23.1365 23.6365 23.1371L23.6305 23.1407ZM22.6741 25.3876C22.6743 25.5109 22.6991 25.633 22.747 25.7466C22.795 25.8603 22.8652 25.9634 22.9536 26.0498C23.1336 26.2253 23.3755 26.3235 23.6275 26.3235C23.8794 26.3235 24.1213 26.2253 24.3013 26.0498C24.389 25.9635 24.4587 25.8608 24.5062 25.7475C24.5537 25.6343 24.5782 25.5127 24.5782 25.39C24.5782 25.2672 24.5537 25.1457 24.5062 25.0324C24.4587 24.9192 24.389 24.8164 24.3013 24.7302C24.1213 24.5551 23.8797 24.457 23.6281 24.457C23.3764 24.457 23.1348 24.5551 22.9548 24.7302C22.8667 24.8165 22.7966 24.9194 22.7487 25.0328C22.7007 25.1463 22.6758 25.2681 22.6753 25.3912L22.6741 25.3876ZM33.9153 17.542C34.0403 17.6643 34.2086 17.7329 34.3838 17.7329C34.5591 17.7329 34.7274 17.6643 34.8524 17.542C34.9138 17.482 34.9626 17.4104 34.9959 17.3314C35.0292 17.2524 35.0464 17.1676 35.0464 17.0819C35.0464 16.9962 35.0292 16.9114 34.9959 16.8324C34.9626 16.7534 34.9138 16.6818 34.8524 16.6219L32.5338 14.3546C32.4057 14.2544 32.2453 14.2043 32.0828 14.2136C31.9202 14.2228 31.7667 14.2909 31.6509 14.4049C31.5362 14.5179 31.4681 14.6697 31.46 14.8302C31.452 14.9908 31.5046 15.1485 31.6076 15.2723L32.2929 15.9453L30.921 17.2925C29.0791 15.6823 26.7493 14.7321 24.3026 14.5933V12.2528H26.591C26.7641 12.2528 26.9302 12.1843 27.0526 12.0624C27.175 11.9404 27.2438 11.775 27.2438 11.6026C27.2438 11.4302 27.175 11.2648 27.0526 11.1428C26.9302 11.0209 26.7641 10.9524 26.591 10.9524H20.6759C20.5028 10.9524 20.3368 11.0209 20.2143 11.1428C20.0919 11.2648 20.0231 11.4302 20.0231 11.6026C20.0231 11.775 20.0919 11.9404 20.2143 12.0624C20.3368 12.1843 20.5028 12.2528 20.6759 12.2528H22.9644V14.5933C20.2871 14.7422 17.757 15.8614 15.8509 17.7399C15.7895 17.7999 15.7406 17.8715 15.7073 17.9505C15.674 18.0295 15.6569 18.1143 15.6569 18.2C15.6569 18.2857 15.674 18.3705 15.7073 18.4495C15.7406 18.5285 15.7895 18.6001 15.8509 18.66C15.9761 18.7821 16.1443 18.8505 16.3194 18.8505C16.4946 18.8505 16.6628 18.7821 16.788 18.66C18.6143 16.8763 21.0701 15.8771 23.6281 15.8771C26.186 15.8771 28.6418 16.8763 30.4681 18.66C31.3649 19.5361 32.0773 20.5814 32.5636 21.7349C33.0499 22.8884 33.3003 24.1269 33.3003 25.378C33.3003 26.6291 33.0499 27.8676 32.5636 29.0211C32.0773 30.1746 31.3649 31.2199 30.4681 32.0959C28.6418 33.8797 26.186 34.8789 23.6281 34.8789C21.0701 34.8789 18.6143 33.8797 16.788 32.0959C16.6612 31.9846 16.4969 31.9251 16.3279 31.9296C16.159 31.934 15.998 32.002 15.8774 32.1199C15.7579 32.2363 15.6883 32.3942 15.6831 32.5606C15.6779 32.727 15.7376 32.8889 15.8497 33.0125C17.8882 34.986 20.6089 36.106 23.4515 36.142C26.2941 36.1779 29.0424 35.127 31.1306 33.2056C33.2039 31.3013 34.4419 28.6612 34.5771 25.8554C34.7123 23.0496 33.7339 20.3035 31.8533 18.2102L33.2251 16.863L33.9153 17.542ZM10.9512 21.2728C10.9524 21.4459 11.0225 21.6115 11.1459 21.7333C11.2694 21.8552 11.4362 21.9234 11.61 21.923H17.5877C17.7609 21.923 17.9269 21.8545 18.0493 21.7326C18.1718 21.6107 18.2405 21.4453 18.2405 21.2728C18.2405 21.1004 18.1718 20.935 18.0493 20.8131C17.9269 20.6911 17.7609 20.6226 17.5877 20.6226H11.6136C11.5273 20.622 11.4416 20.6383 11.3616 20.6707C11.2816 20.703 11.2087 20.7507 11.1472 20.8111C11.0857 20.8715 11.0367 20.9433 11.0031 21.0225C10.9694 21.1018 10.9518 21.1868 10.9512 21.2728ZM12.4676 25.3864C12.4677 25.4719 12.4849 25.5566 12.5182 25.6355C12.5515 25.7144 12.6002 25.7859 12.6615 25.8458C12.7864 25.9684 12.9547 26.0369 13.13 26.0366H19.1053C19.2785 26.0366 19.4445 25.9681 19.5669 25.8461C19.6894 25.7242 19.7581 25.5588 19.7581 25.3864C19.7581 25.2139 19.6894 25.0486 19.5669 24.9266C19.4445 24.8047 19.2785 24.7362 19.1053 24.7362H13.1336C13.0473 24.7357 12.9617 24.7522 12.8817 24.7847C12.8017 24.8171 12.729 24.865 12.6676 24.9255C12.6062 24.986 12.5573 25.0579 12.5238 25.1372C12.4904 25.2165 12.4729 25.3016 12.4724 25.3876L12.4676 25.3864ZM11.61 30.1297H17.5877C17.7609 30.1297 17.9269 30.0612 18.0493 29.9393C18.1718 29.8174 18.2405 29.652 18.2405 29.4795C18.2405 29.3071 18.1718 29.1417 18.0493 29.0198C17.9269 28.8978 17.7609 28.8293 17.5877 28.8293H11.6136C11.4405 28.8293 11.2744 28.8978 11.152 29.0198C11.0296 29.1417 10.9608 29.3071 10.9608 29.4795C10.9608 29.652 11.0296 29.8174 11.152 29.9393C11.2744 30.0612 11.4405 30.1297 11.6136 30.1297H11.61Z" fill="#253858"/>
</svg>
